HIERARCHY
ROOT Pelvis
{
	OFFSET 0.000000 0.000000 0.000000
	CHANNELS 6 Xposition Yposition Zposition Zrotation Yrotation Xrotation 
	JOINT Left_hip
	{
		OFFSET 0.068973 -0.091024 -0.007589
		CHANNELS 3 Zrotation Yrotation Xrotation
		JOINT Left_knee
		{
			OFFSET 0.036482 -0.391037 -0.003979
			CHANNELS 3 Zrotation Yrotation Xrotation
			JOINT Left_ankle
			{
				OFFSET -0.012239 -0.415469 -0.043440
				CHANNELS 3 Zrotation Yrotation Xrotation
				JOINT Left_foot
				{
					OFFSET 0.023806 -0.058558 0.118702
					CHANNELS 3 Zrotation Yrotation Xrotation
					End Site
					{
						OFFSET 0.000000 0.000000 0.000000
					}
				}
			}
		}
	}
	JOINT Right_hip
	{
		OFFSET -0.066552 -0.090468 -0.003847
		CHANNELS 3 Zrotation Yrotation Xrotation
		JOINT Right_knee
		{
			OFFSET -0.042435 -0.398340 -0.006400
			CHANNELS 3 Zrotation Yrotation Xrotation
			JOINT Right_ankle
			{
				OFFSET 0.014931 -0.415421 -0.041327
				CHANNELS 3 Zrotation Yrotation Xrotation
				JOINT Right_foot
				{
					OFFSET -0.021472 -0.049410 0.121889
					CHANNELS 3 Zrotation Yrotation Xrotation
					End Site
					{
						OFFSET 0.000000 0.000000 0.000000
					}
				}
			}
		}
	}
	JOINT Spine1
	{
		OFFSET -0.002904 0.105700 -0.022855
		CHANNELS 3 Zrotation Yrotation Xrotation
		JOINT Spine2
		{
			OFFSET 0.004179 0.132554 -0.002501
			CHANNELS 3 Zrotation Yrotation Xrotation
			JOINT Spine3
			{
				OFFSET 0.001987 0.049603 0.025988
				CHANNELS 3 Zrotation Yrotation Xrotation
				JOINT Neck
				{
					OFFSET -0.003935 0.211336 -0.045638
					CHANNELS 3 Zrotation Yrotation Xrotation
					JOINT Head
					{
						OFFSET 0.003906 0.065991 0.051018
						CHANNELS 3 Zrotation Yrotation Xrotation
						End Site
						{
							OFFSET 0.000000 0.000000 0.000000
						}
					}
				}
				JOINT Left_collar
				{
					OFFSET 0.072882 0.117751 -0.036270
					CHANNELS 3 Zrotation Yrotation Xrotation
					JOINT Left_shoulder
					{
						OFFSET 0.082118 0.032630 -0.005771
						CHANNELS 3 Zrotation Yrotation Xrotation
						JOINT Left_elbow
						{
							OFFSET 0.263305 -0.015144 -0.028095
							CHANNELS 3 Zrotation Yrotation Xrotation
							JOINT Left_wrist
							{
								OFFSET 0.250741 0.010115 -0.000759
								CHANNELS 3 Zrotation Yrotation Xrotation
								JOINT Left_palm
								{
									OFFSET 0.080683 -0.009989 -0.013613
									CHANNELS 3 Zrotation Yrotation Xrotation
									End Site
									{
										OFFSET 0.000000 0.000000 0.000000
									}
								}
							}
						}
					}
				}
				JOINT Right_collar
				{
					OFFSET -0.074811 0.116132 -0.040385
					CHANNELS 3 Zrotation Yrotation Xrotation
					JOINT Right_shoulder
					{
						OFFSET -0.085089 0.032943 -0.007484
						CHANNELS 3 Zrotation Yrotation Xrotation
						JOINT Right_elbow
						{
							OFFSET -0.254763 -0.014219 -0.020321
							CHANNELS 3 Zrotation Yrotation Xrotation
							JOINT Right_wrist
							{
								OFFSET -0.256597 0.009233 -0.005063
								CHANNELS 3 Zrotation Yrotation Xrotation
								JOINT Right_palm
								{
									OFFSET -0.080528 -0.007219 -0.010379
									CHANNELS 3 Zrotation Yrotation Xrotation
									End Site
									{
										OFFSET 0.000000 0.000000 0.000000
									}
								}
							}
						}
					}
				}
			}
		}
	}
}
MOTION
Frames: 14
Frame Time: 0.100000
0.289549 0.480313 1.318271 -107.521584 58.640887 12.404942 2.730996 7.537004 -70.387461 -17.360548 34.626704 105.776441 -9.613209 -7.425719 3.863056 7.589525 9.243096 -27.895226 3.911434 -8.210131 -39.139439 -6.890929 -22.700602 139.309079 -2.802593 -9.588924 -7.400657 -15.224062 0.840966 -10.857487 -4.415190 -3.887658 32.312887 -7.815080 -13.288020 6.827994 -4.089551 -6.446282 2.167178 -25.556881 2.387084 24.350589 2.637755 -2.643731 -26.489963 -10.150984 -32.955870 3.385845 -38.614640 -43.797520 12.375539 -21.255605 -65.599513 55.141700 23.794434 -23.351433 24.038192 -16.452244 -9.389764 -21.898865 -2.569863 4.510181 -4.099729 70.065180 -17.944316 -9.949424 -15.752999 15.177349 7.043033 -35.940678 6.256684 -14.593220 26.664614 13.409326 -1.164238 
0.287907 0.523373 1.343397 -97.379506 60.760761 17.656888 3.678634 11.317629 -69.782251 -17.614468 36.525812 107.491375 -14.244392 -9.482850 12.762129 5.924254 9.563131 -31.413860 7.016005 -9.902277 -36.912884 -10.848250 -23.414007 140.686760 -3.460087 -14.855462 -9.690237 -17.798784 1.452171 -9.034038 -7.712429 -2.452539 31.225815 -15.308383 -12.357995 8.690275 -7.843434 -5.803381 3.989380 -26.665378 3.673719 33.910878 6.847276 -2.709202 -23.443983 -14.534958 -35.470630 6.463169 -42.666632 -39.288152 16.705294 -28.383160 -66.303984 61.061612 28.167418 -24.271156 19.075788 -19.253324 -10.267755 -23.885555 -6.201628 5.422418 -1.004192 84.376532 -24.636102 -12.393902 -11.104591 24.343165 16.150988 -39.998295 4.718081 -24.019261 29.214405 13.341278 0.540970 
0.293440 0.555861 1.344399 -91.665495 61.213615 19.712800 3.154702 11.981365 -69.965561 -18.436069 36.872005 107.014632 -14.923376 -9.747882 16.156642 2.504717 9.419589 -33.666948 6.695620 -11.780319 -37.506664 -12.920694 -23.456488 142.076003 0.012822 -17.441819 -10.619377 -24.384019 2.679619 -8.791222 -6.288003 0.016367 32.355821 -18.645270 -8.776889 11.868933 -8.484929 -2.154324 5.675252 -25.705503 3.018494 41.967974 14.395020 -5.653763 -26.164006 -15.550137 -42.834555 8.733827 -48.940474 -37.778549 19.898888 -32.752408 -61.859280 67.299967 27.469891 -25.409034 20.673415 -21.949287 -13.047488 -30.307941 -11.885568 14.852646 3.358086 99.765548 -27.421922 -19.494845 -5.456125 26.847540 18.851955 -39.583651 3.232073 -36.298365 30.957382 14.206459 -1.577951 
0.310374 0.584489 1.349252 -89.527383 62.366871 21.770911 4.146063 13.096355 -72.769602 -18.955652 36.681186 106.060888 -17.625466 -9.864550 21.232488 2.712278 9.759126 -34.557582 7.071392 -13.764887 -39.339253 -16.056680 -25.004452 142.876658 0.334565 -19.773893 -11.493918 -26.289085 2.776543 -7.671871 -6.630163 1.452889 34.961151 -18.968221 -8.021529 11.880296 -8.042597 -1.677755 6.310360 -26.046976 2.426093 44.153880 16.142380 -7.461120 -25.530403 -16.397388 -43.686899 10.744122 -52.066494 -35.075367 23.494989 -40.680048 -57.127348 78.183808 26.864445 -26.138940 21.626449 -22.928083 -14.189653 -32.317212 -11.818428 16.444527 4.576975 102.985052 -30.434839 -20.712474 -0.397592 33.062669 23.312728 -39.490829 3.316210 -41.050371 32.078735 14.529516 -2.659985 
0.313603 0.597250 1.357710 -86.482270 63.764712 22.815682 4.608754 13.276901 -72.305978 -18.871834 36.553957 106.299282 -18.893570 -9.584141 24.205800 3.309154 9.990457 -34.580888 6.635947 -15.708288 -37.139076 -17.407088 -25.762397 142.377024 0.611876 -20.076266 -11.817885 -26.967987 1.853271 -7.315996 -7.383036 2.229277 35.779627 -19.283148 -8.138704 14.318016 -8.008744 -2.286975 6.814354 -27.570294 3.308554 46.403649 15.071446 -8.398103 -24.882019 -18.189897 -43.699458 13.362521 -52.262302 -32.170825 23.712680 -39.385761 -51.921293 80.449373 24.889963 -28.375380 26.639344 -22.331472 -14.155387 -33.442793 -10.402404 16.090176 5.246566 104.158736 -32.731064 -22.573177 1.311729 39.864975 25.469162 -40.060157 5.997465 -41.124086 32.678130 13.827516 -3.500348 
0.311556 0.600940 1.358432 -85.043142 63.983665 23.272940 4.383147 12.916922 -72.097873 -18.766219 36.574514 106.574352 -18.930067 -9.684019 24.763202 2.984044 10.330416 -34.577348 7.126743 -15.459457 -36.550265 -17.930812 -25.822517 142.268354 0.245237 -20.981190 -12.534752 -26.445789 2.152616 -6.124992 -7.107850 2.425561 35.967802 -19.514027 -8.002811 14.574540 -8.068324 -2.253141 7.057911 -28.320138 4.818584 48.442285 14.040156 -8.549775 -23.811469 -17.783967 -44.400501 13.333593 -52.986754 -31.763560 23.854619 -36.896978 -50.550282 76.491573 20.995949 -26.329655 25.952975 -23.004915 -14.886090 -34.318872 -10.811351 16.567139 5.606830 104.970286 -34.590575 -22.970080 3.381840 42.515620 27.931541 -37.195711 6.509916 -42.259639 33.785990 14.235596 -4.436665 
0.309818 0.605186 1.351945 -82.298408 63.609320 26.693351 3.186016 12.105029 -73.683464 -18.095214 37.573650 106.315576 -18.377509 -9.855219 24.793598 2.107103 10.138176 -34.423704 5.980564 -15.191476 -39.380778 -18.776853 -25.284107 144.168645 1.140514 -21.637045 -12.435447 -27.597848 3.101971 -6.194701 -6.139897 2.062247 36.743747 -19.396855 -8.191711 13.230123 -7.843666 -2.147922 7.676284 -28.774376 4.538877 48.019215 14.070574 -8.646194 -23.042291 -16.548101 -45.457107 12.612670 -54.159544 -31.836641 23.917389 -35.079371 -51.087534 74.973334 17.913983 -23.856561 27.308814 -23.148993 -16.192337 -35.446085 -11.458128 17.075548 6.203452 106.271293 -36.158792 -23.982142 4.084425 43.413737 29.321316 -33.065390 6.622968 -42.437610 34.052156 15.785189 -6.166299 
0.308559 0.606026 1.354354 -81.225155 63.803867 27.262044 3.132008 12.528423 -73.184281 -17.905089 37.721428 106.432802 -18.959534 -9.072161 26.315560 2.636494 9.979282 -35.116806 6.240603 -15.478000 -38.567525 -19.087675 -25.475201 143.860806 0.957727 -22.647077 -13.052096 -27.634080 3.449157 -5.820253 -6.154672 1.982333 37.036483 -19.123697 -8.355947 13.616026 -7.673838 -2.325596 8.124792 -28.737709 4.475312 48.721541 13.896364 -8.848754 -22.488234 -15.893004 -45.164639 12.938230 -53.309840 -32.041058 23.189613 -36.562782 -50.524141 76.320991 18.627797 -23.448642 26.606108 -23.465034 -16.406445 -35.514065 -11.539521 16.543172 6.322307 106.622893 -36.568612 -24.702498 4.454378 44.624436 29.756030 -33.694639 6.183592 -42.543990 34.505046 15.852745 -6.305362 
0.309536 0.606921 1.357001 -80.466571 63.749746 27.904926 3.060007 13.308356 -72.757050 -17.861521 37.762779 106.189318 -19.793851 -8.444837 27.696973 3.344719 9.794196 -35.862409 6.205391 -15.800134 -38.494956 -19.317222 -25.530021 143.470923 1.124311 -23.566145 -13.396110 -28.449736 3.797384 -5.744085 -6.068538 1.657456 37.045373 -19.309368 -8.634758 13.250145 -7.778386 -2.443977 8.703195 -29.309865 4.147612 48.599131 13.744468 -8.669351 -21.878144 -16.592968 -45.253853 13.550724 -53.186877 -32.352186 22.576442 -36.176233 -50.971427 75.418872 18.314118 -22.819625 26.253193 -24.031388 -16.996948 -35.346574 -11.544623 16.086646 6.350663 107.260439 -36.933643 -25.747440 4.658113 46.047941 30.552608 -33.323505 6.184167 -41.652630 35.080829 16.421148 -6.499336 
0.312272 0.606528 1.357533 -80.286893 63.370763 28.323732 3.017474 13.491417 -72.781771 -17.695992 37.879695 105.848304 -19.849339 -8.027461 28.199245 3.372899 9.671772 -36.109638 6.229735 -15.802393 -38.880019 -19.472264 -25.531992 143.154598 1.295742 -24.271890 -13.759189 -29.008705 4.073682 -5.559536 -6.098507 1.492808 36.989828 -19.244760 -8.860838 12.933737 -7.710058 -2.534143 9.016079 -29.592941 3.875086 48.191483 13.673361 -8.527441 -21.515460 -16.321001 -45.414572 13.625287 -53.691884 -32.486094 22.587351 -36.728420 -51.391058 76.646509 18.431797 -22.070430 26.631561 -24.159917 -17.307309 -35.448600 -11.688489 15.878550 6.306499 107.641612 -36.797865 -25.975474 4.104487 46.796823 30.606557 -33.322349 5.729086 -41.034571 35.439847 16.817411 -6.744756 
0.313749 0.606655 1.358364 -80.806388 63.129603 27.869943 3.161381 13.433739 -73.020813 -17.568268 37.826272 105.953521 -19.558700 -7.731040 28.118565 3.233935 9.594633 -36.101973 6.326730 -15.888203 -38.885504 -19.559438 -25.582853 142.845336 1.324038 -24.818686 -13.865316 -29.128062 4.133886 -5.396369 -6.350923 1.508752 36.880436 -19.156063 -9.115122 12.711393 -7.685087 -2.691802 9.212798 -29.409536 3.388019 48.035267 13.852928 -8.401445 -20.857679 -16.011236 -45.035890 13.547074 -53.511426 -32.457312 22.318595 -37.278832 -51.747167 77.759259 18.533093 -21.577269 27.072256 -24.151351 -17.327442 -35.273723 -11.785697 15.182220 6.207555 107.498913 -36.735984 -26.160980 3.663825 47.736983 30.928726 -33.442527 5.512857 -40.045439 35.622755 16.968859 -6.727207 
0.315093 0.605026 1.354729 -84.339583 63.315566 26.068738 3.903388 12.483138 -75.327144 -17.767123 37.610570 106.465392 -17.849205 -8.546968 24.775215 1.666760 10.430309 -34.087392 7.962090 -14.219802 -41.472007 -19.902935 -25.804516 143.405644 -0.247538 -25.129476 -13.517047 -26.658376 2.484966 -4.529090 -8.345669 1.261709 37.072293 -18.257084 -10.532138 10.961988 -7.321960 -3.664793 8.987614 -24.820993 -1.404183 48.888238 18.090672 -8.057458 -18.296816 -14.876646 -43.873271 12.549504 -55.479443 -32.511879 23.771892 -31.691653 -49.943911 73.685877 22.851594 -21.307395 27.565342 -22.282786 -14.639633 -32.389580 -13.540804 13.161110 4.052655 103.738630 -34.156827 -22.919667 1.351738 44.417652 30.154269 -37.328923 4.126427 -37.432266 33.557182 15.029056 -4.346927 
0.306329 0.585290 1.338775 -97.093849 61.628220 17.819106 7.434645 10.385139 -77.818084 -15.043084 36.462539 109.222318 -5.347867 -12.921898 9.369620 -11.261291 15.705577 -27.437563 8.337553 -7.860001 -47.120617 -9.833571 -26.635646 142.481375 -4.864532 -6.309168 -10.650683 -13.487214 -6.998537 -3.806070 -11.510152 0.218820 35.358146 -12.456552 -13.744926 12.326921 -4.954441 -6.815576 5.095067 -15.570673 -8.984636 48.862696 21.418603 -10.387726 -15.744215 -13.602963 -47.474490 11.267012 -58.466953 -31.068768 26.892204 -16.320416 -43.067605 57.895586 31.259257 -18.701592 23.091922 -13.807090 -5.291054 -25.682660 -14.477269 13.586523 -0.625654 91.593943 -27.775913 -13.185153 -4.822920 36.350751 23.777137 -43.586321 1.196772 -32.725637 27.282430 7.250084 -1.431334 
0.303771 0.532330 1.307667 -111.703254 54.459314 6.275082 8.012191 10.434714 -73.530548 -14.461082 34.597992 109.493645 -0.428715 -9.272756 -3.015210 -7.666484 17.620250 -21.458060 7.800974 -3.074624 -44.900998 -4.832986 -24.794839 139.981005 -8.060843 -2.136537 -10.695387 -6.024690 -10.892080 -4.322811 -10.606721 -2.711132 36.835615 -6.287034 -16.265104 13.243245 -2.195329 -8.737342 2.072435 -12.638031 -13.700086 45.501027 19.359755 -11.544474 -17.002179 -16.344564 -48.239187 12.393166 -55.378378 -36.292229 25.669001 -7.472329 -34.426835 48.863793 35.222383 -18.388712 24.490783 -10.054713 -2.509060 -19.706988 -10.418446 14.501413 -5.747578 73.646006 -20.068699 -6.535159 -10.192833 33.295485 16.558948 -48.402477 2.440349 -24.985454 24.769104 3.676086 1.525243 
